<svg aria-hidden="true" style="position: absolute; width: 0; height: 0; overflow: hidden;" version="1.1" xmlns="http://www.w3.org/2000/svg" xmlns:xlink="http://www.w3.org/1999/xlink">
<defs>
<symbol id="icon-crown" viewBox="0 0 32 32">
<path d="M16 10.938c-1.379-0.004-2.496-1.121-2.5-2.5v-0c0-1.406 1.125-2.5 2.5-2.5s2.5 1.094 2.5 2.5c0 1.375-1.125 2.5-2.5 2.5zM6.031 9.906c1.094 0 1.969 0.906 1.969 2 0 1.125-0.875 2-1.969 2-1.125 0-2.031-0.875-2.031-2 0-1.094 0.906-2 2.031-2zM26.031 9.906c1.094 0 1.969 0.906 1.969 2 0 1.125-0.875 2-1.969 2-1.125 0-2.031-0.875-2.031-2 0-1.094 0.906-2 2.031-2zM8.219 23.719l-1.656-9.063c0.5-0.094 0.969-0.375 1.344-0.688 1.031 0.938 2.344 1.844 3.594 1.844 1.5 0 2.719-2.313 3.563-4.25 0.281 0.094 0.625 0.188 0.938 0.188s0.656-0.094 0.938-0.188c0.844 1.938 2.063 4.25 3.563 4.25 1.25 0 2.563-0.906 3.594-1.844 0.375 0.313 0.844 0.594 1.344 0.688l-1.656 9.063h-15.563zM7.875 24.5h16.25v1.531h-16.25z"></path>
</symbol>
<symbol id="icon-diamond" viewBox="0 0 32 32">
<path d="M0 10.080v-2.080l8-8h16l8 8v2.080l-16 21.92zM4 10l12 17-8-17zM28 10h-4l-8 17zM12 10l4 12 4-12zM8 4l-4 4h4l4-4zM24 4h-4l4 4h4zM14 4l-2 4h8l-2-4z"></path>
</symbol>
<symbol id="icon-electricity" viewBox="0 0 32 32">
<path d="M12.277 20.667c-0.283-0.655-0.663-1.312-1.017-1.87l-0.056-0.093c-0.461-0.717-0.959-1.407-1.459-2.024l0.011 0.013c-0.911-1.106-1.52-2.469-1.705-4.002l0.004 0.036c-0.036-0.301-0.055-0.607-0.055-0.918 0-1.228 0.29-2.389 0.784-3.373l0.021-0.045c0.654-1.304 1.659-2.402 2.926-3.187 1.277-0.787 2.757-1.205 4.27-1.205h-0c0.003 0 0.006 0 0.009 0 1.577 0 3.050 0.449 4.262 1.206l0.033 0.019c1.232 0.766 2.237 1.864 2.911 3.213l-0.020-0.044c0.514 1.028 0.804 2.189 0.804 3.417 0 0.311-0.019 0.618-0.051 0.883l-0.004 0.037c-0.182 1.495-0.791 2.858-1.692 3.95l0.035-0.044c-0.534 0.661-1.032 1.351-1.549 2.161-0.353 0.558-0.732 1.213-1.016 1.869h-7.445zM23.285 17.525c1.056-1.281 1.771-2.88 1.984-4.633l0.004-0.043c0.038-0.312 0.060-0.672 0.060-1.038 0-1.441-0.34-2.803-0.943-4.010l0.023 0.052c-0.788-1.578-1.963-2.862-3.404-3.758l-0.039-0.023c-1.411-0.882-3.126-1.405-4.962-1.405-0.003 0-0.005 0-0.008 0h0c-1.758 0-3.481 0.487-4.969 1.403-1.48 0.918-2.656 2.202-3.42 3.727l-0.024 0.053c-0.581 1.156-0.921 2.519-0.921 3.961 0 0.364 0.022 0.724 0.064 1.076l-0.004-0.043c0.199 1.711 0.888 3.333 1.987 4.678 0.641 0.784 2.273 3.022 2.62 4.477h9.333c0.347-1.453 1.977-3.691 2.618-4.475z"></path>
<path d="M12.667 14l4-6v4h2.667l-4 6v-4zM11.333 23.333h9.333v1.333h-9.333z"></path>
<path d="M19.333 28h-6.667v-0.667h6.667zM11.333 26v2c0 0.736 0.597 1.333 1.333 1.333v0h6.667c0.736 0 1.333-0.597 1.333-1.333v0-2z"></path>
</symbol>
<symbol id="icon-plumbering" viewBox="0 0 32 32">
<path d="M22.609 17.044h-2.471c-0.72-1.513-1.947-2.733-3.442-3.454v-2.807h3.13c1.726 0 3.13-1.404 3.13-3.13s-1.404-3.13-3.13-3.13h-3.13v-1.043c0-1.726-1.404-3.13-3.13-3.13s-3.13 1.404-3.13 3.13v1.043h-3.13c-1.726 0-3.13 1.404-3.13 3.13s1.404 3.13 3.13 3.13h3.13v2.812c-1.483 0.714-2.714 1.917-3.443 3.449h-5.948c-0.576 0-1.044 0.467-1.044 1.043v6.261c0 0.576 0.467 1.044 1.044 1.044h5.923c1.206 2.524 3.771 4.174 6.599 4.174 2.818 0 5.371-1.649 6.568-4.174h2.476c0.575 0 1.044 0.468 1.044 1.044v4.174c0 0.576 0.467 1.044 1.044 1.044h6.261c0.576 0 1.044-0.467 1.044-1.044v-4.174c-0-5.179-4.213-9.391-9.391-9.391zM7.304 8.696c-0.575 0-1.043-0.468-1.043-1.043s0.468-1.043 1.043-1.043h12.522c0.575 0 1.044 0.468 1.044 1.043s-0.468 1.043-1.044 1.043z"></path>
</symbol>
<symbol id="icon-house" viewBox="0 0 32 32">
<path d="M26.367 7.46c-0.534-0.59-1.613-1.069-2.409-1.069h-6.037c-0.795 0-1.967 0.373-2.617 0.834l-6.248 4.429c-4.128-0.465-7.884-0.006-9.056 0.271 0 0 5.693 4.544 7.627 7.156 1.896 2.561 6.454 9.090 14.118 5.448-2.578-4.402-9.59-7.828-10.834-8.407-0.105-0.048-0.189-0.171-0.189-0.276 0-0.106 0.086-0.157 0.193-0.115 1.297 0.521 8.31 3.43 11.379 7.806 0.127-1.759-0.092-6.176-4.847-9.21-1.815-1.157-3.93-1.876-6.055-2.307l4.582-3.162c0.654-0.453 1.642-0.363 2.205 0.2l4.361 4.361c0.563 0.562 1.664 1.018 2.461 1.018l6.231-1.072c0.796 0 1.009-0.479 0.474-1.069z"></path>
<path d="M25.795 18.93l2.117-0.469v-2.235l-2.117 0.47zM29.127 18.206l2.117-0.471v-2.233l-2.117 0.47zM25.795 22.144l2.117-0.471v-2.233l-2.117 0.47zM29.127 21.419l2.117-0.47v-2.234l-2.117 0.47z"></path>
</symbol>
<symbol id="icon-logo" viewBox="0 0 32 32">
<path d="M0 16h4l12-13.696 12 13.696h4l-13.984-16h-4zM4 32h8v-9.984q0-0.832 0.576-1.408t1.44-0.608h4q0.8 0 1.408 0.608t0.576 1.408v9.984h8v-13.408l-12-13.248-12 13.248zM26.016 6.112l4 4.576v-8.672h-4z"></path>
</symbol>
<symbol id="icon-dashboard" viewBox="0 0 32 32">
<path d="M26.667 26.667c0.884 0 1.6-0.716 1.6-1.6s-0.716-1.6-1.6-1.6-1.6 0.716-1.6 1.6 0.716 1.6 1.6 1.6zM26.667 24.533c0 0 0 0 0 0 0.294 0 0.533 0.239 0.533 0.533 0 0 0 0 0 0v0c0 0.295-0.239 0.533-0.533 0.533s-0.533-0.239-0.533-0.533c0-0 0-0 0-0 0-0.294 0.239-0.533 0.533-0.533 0 0 0 0 0 0h-0zM22.4 26.667c0.884 0 1.6-0.716 1.6-1.6s-0.716-1.6-1.6-1.6-1.6 0.716-1.6 1.6 0.716 1.6 1.6 1.6zM22.4 24.533c0 0 0 0 0 0 0.294 0 0.533 0.239 0.533 0.533 0 0 0 0 0 0v0c0 0.295-0.239 0.533-0.533 0.533s-0.533-0.239-0.533-0.533c0-0 0-0 0-0 0-0.294 0.239-0.533 0.533-0.533 0 0 0 0 0 0v0zM18.133 26.667c0.884 0 1.6-0.716 1.6-1.6s-0.716-1.6-1.6-1.6-1.6 0.716-1.6 1.6 0.716 1.6 1.6 1.6zM18.133 24.533c0 0 0 0 0 0 0.294 0 0.533 0.239 0.533 0.533 0 0 0 0 0 0v0c0 0.295-0.239 0.533-0.533 0.533s-0.533-0.239-0.533-0.533c0-0 0-0 0-0 0-0.294 0.239-0.533 0.533-0.533 0 0 0 0 0 0v0zM13.867 26.667c0.884 0 1.6-0.716 1.6-1.6s-0.716-1.6-1.6-1.6-1.6 0.716-1.6 1.6 0.716 1.6 1.6 1.6zM13.867 24.533c0 0 0 0 0 0 0.294 0 0.533 0.239 0.533 0.533 0 0 0 0 0 0v0c0 0 0 0 0 0 0 0.294-0.239 0.533-0.533 0.533-0 0-0 0-0 0v0c-0 0-0 0-0 0-0.294 0-0.533-0.239-0.533-0.533 0-0 0-0 0-0v0c0-0 0-0 0-0 0-0.294 0.239-0.533 0.533-0.533 0 0 0 0 0 0h-0zM9.6 26.667c0.884 0 1.6-0.716 1.6-1.6s-0.716-1.6-1.6-1.6-1.6 0.716-1.6 1.6 0.716 1.6 1.6 1.6zM9.6 24.533c0 0 0 0 0 0 0.294 0 0.533 0.239 0.533 0.533 0 0 0 0 0 0v0c0 0 0 0 0 0 0 0.294-0.239 0.533-0.533 0.533-0 0-0 0-0 0v0c-0 0-0 0-0 0-0.294 0-0.533-0.239-0.533-0.533 0-0 0-0 0-0v0c0-0 0-0 0-0 0-0.294 0.239-0.533 0.533-0.533 0 0 0 0 0 0v0zM5.333 26.667c0.884 0 1.6-0.716 1.6-1.6s-0.716-1.6-1.6-1.6-1.6 0.716-1.6 1.6 0.716 1.6 1.6 1.6zM5.333 24.533c0 0 0 0 0 0 0.294 0 0.533 0.239 0.533 0.533 0 0 0 0 0 0v0c0 0 0 0 0 0 0 0.294-0.239 0.533-0.533 0.533-0 0-0 0-0 0v0c-0 0-0 0-0 0-0.294 0-0.533-0.239-0.533-0.533 0-0 0-0 0-0v0c0-0 0-0 0-0 0-0.294 0.239-0.533 0.533-0.533 0 0 0 0 0 0v0z"></path>
<path d="M31.467 10.667h-11.2v-1.6c0-0.295-0.239-0.533-0.533-0.533v0h-3.2v-1.067h5.867c0.295 0 0.533-0.239 0.533-0.533v0-6.4c0-0.295-0.239-0.533-0.533-0.533v0h-12.8c-0.295 0-0.533 0.239-0.533 0.533v0 6.4c0 0.295 0.239 0.533 0.533 0.533h5.867v1.067h-3.2c-0.295 0-0.533 0.239-0.533 0.533v0 1.6h-11.2c-0.295 0-0.533 0.239-0.533 0.533v10.667c0 0.295 0.239 0.533 0.533 0.533v0h1.084c-0.010 0.059-0.016 0.127-0.017 0.196v4.941c0 0.63 0.462 1.152 1.066 1.246v1.894c0 0.73 0.592 1.323 1.323 1.323h24.021c0.73 0 1.323-0.592 1.323-1.323v-1.894c0.604-0.095 1.067-0.616 1.067-1.246v-4.941c0-0.067-0.007-0.132-0.017-0.196h1.083c0.295 0 0.533-0.239 0.533-0.533v0-10.667c0-0 0-0 0-0 0-0.294-0.239-0.533-0.533-0.533-0 0-0 0-0 0v0zM10.133 1.067h11.733v5.333h-11.733zM12.8 9.6h6.4v1.067h-6.4zM28.267 30.677c-0 0.141-0.115 0.256-0.256 0.256h-24.021c-0.141-0-0.256-0.115-0.256-0.256v0-1.877h24.533zM29.334 22.596v4.941c0 0.108-0.088 0.196-0.197 0.196h-26.274c-0.108 0-0.196-0.088-0.196-0.196v0-4.941c0-0.108 0.088-0.196 0.196-0.196v0h26.274c0.108 0 0.196 0.088 0.197 0.196v0zM30.933 21.333h-29.867v-9.6h29.867z"></path>
<path d="M5.333 12.8h-2.133c-0.295 0-0.533 0.239-0.533 0.533v0 2.133c0 0.295 0.239 0.533 0.533 0.533v0h2.133c0.295 0 0.533-0.239 0.533-0.533v0-2.133c0-0.295-0.239-0.533-0.533-0.533v0zM4.8 14.933h-1.067v-1.067h1.067zM5.333 17.067h-2.133c-0.295 0-0.533 0.239-0.533 0.533v0 2.133c0 0.295 0.239 0.533 0.533 0.533v0h2.133c0.295 0 0.533-0.239 0.533-0.533v0-2.133c0-0 0-0 0-0 0-0.294-0.239-0.533-0.533-0.533-0 0-0 0-0 0v0zM4.8 19.2h-1.067v-1.067h1.067zM9.6 12.8h-2.133c-0.295 0-0.533 0.239-0.533 0.533v0 2.133c0 0.295 0.239 0.533 0.533 0.533h2.133c0.295 0 0.533-0.239 0.533-0.533v0-2.133c0-0.295-0.239-0.533-0.533-0.533v0zM9.067 14.933h-1.067v-1.067h1.067zM9.6 17.067h-2.133c-0.295 0-0.533 0.239-0.533 0.533v0 2.133c0 0.295 0.239 0.533 0.533 0.533h2.133c0.295 0 0.533-0.239 0.533-0.533v0-2.133c0-0.295-0.239-0.533-0.533-0.533v0zM9.067 19.2h-1.067v-1.067h1.067zM22.4 16h2.133c0.295 0 0.533-0.239 0.533-0.533v0-2.133c0-0.295-0.239-0.533-0.533-0.533v0h-2.133c-0.295 0-0.533 0.239-0.533 0.533v0 2.133c0 0.295 0.239 0.533 0.533 0.533v0zM22.933 13.867h1.067v1.067h-1.067zM22.4 20.267h2.133c0.295 0 0.533-0.239 0.533-0.533v0-2.133c0-0.295-0.239-0.533-0.533-0.533v0h-2.133c-0.295 0-0.533 0.239-0.533 0.533v0 2.133c0 0 0 0 0 0 0 0.295 0.239 0.533 0.533 0.533v0zM22.933 18.133h1.067v1.067h-1.067zM26.667 16h2.133c0.295 0 0.533-0.239 0.533-0.533v0-2.133c0-0.295-0.239-0.533-0.533-0.533v0h-2.133c-0.295 0-0.533 0.239-0.533 0.533v0 2.133c0 0 0 0 0 0 0 0.294 0.239 0.533 0.533 0.533 0 0 0 0 0 0v0zM27.2 13.867h1.067v1.067h-1.067zM26.667 20.267h2.133c0.295 0 0.533-0.239 0.533-0.533v0-2.133c0-0.295-0.239-0.533-0.533-0.533v0h-2.133c-0.295 0-0.533 0.239-0.533 0.533v0 2.133c0 0 0 0 0 0 0 0.295 0.239 0.533 0.533 0.533v0zM27.2 18.133h1.067v1.067h-1.067zM12.267 12.8c-0.295 0-0.533 0.239-0.533 0.533s0.239 0.533 0.533 0.533v0h7.467c0.295 0 0.533-0.239 0.533-0.533s-0.239-0.533-0.533-0.533v0zM19.733 19.2h-7.467c-0.295 0-0.533 0.239-0.533 0.533s0.239 0.533 0.533 0.533h7.467c0.295-0 0.533-0.239 0.533-0.533s-0.239-0.533-0.533-0.533c0 0-0 0-0 0v0zM19.733 16h-7.467c-0.295 0-0.533 0.239-0.533 0.533s0.239 0.533 0.533 0.533h7.467c0.295-0 0.533-0.239 0.533-0.533s-0.239-0.533-0.533-0.533c0 0-0 0-0 0v0z"></path>
</symbol>
<symbol id="icon-key" viewBox="0 0 32 32">
<path d="M30.745 9.264c-1.344-1.344-3.5-1.33-4.835 0.004-0.85 0.85-1.161 2.040-0.931 3.13l-5.354 5.354 0.064 2.441 2.572-0.185-0.181-1.664 1.47 0.375-0.19-1.637 1.425 0.366-0.19-1.655 1.857 0.376 1.135-1.135c1.1 0.239 2.297-0.064 3.157-0.922 1.338-1.339 1.342-3.505 0-4.848zM30.156 10.936c-0.302 0.304-0.782 0.294-1.076 0s-0.297-0.777 0-1.076c0.137-0.138 0.328-0.224 0.538-0.224s0.401 0.086 0.538 0.224l0 0c0.138 0.137 0.224 0.328 0.224 0.538s-0.086 0.401-0.224 0.538l-0 0zM23.875 21.5h-5.875v-5.25c0-2.558-2.235-4.625-4.75-4.625h-7.875c-2.761 0-5.126 2.393-5.125 4.75v9.625c-0.004 1.066 0.75 1.624 1.5 1.625 0.751 0.001 1.5-0.556 1.5-1.625v-9.375h1v11h9.75v-11h1l0.010 6.296c-0.006 1.091 0.668 1.556 1.365 1.579h7.5c2.045 0 2.045-3 0-3zM9.252 4.375c-1.804 0-3.237 1.445-3.237 3.237s1.445 3.239 3.237 3.239c1.781 0 3.226-1.435 3.239-3.239 0-1.793-1.446-3.237-3.239-3.237z"></path>
</symbol>
<symbol id="icon-achievement" viewBox="0 0 32 32">
<path d="M14.954 24.243l-1.689-1.019v8.776h5.469v-9.246l-0.643-0.341zM19.781 32h5.469v-5.789l-5.469-2.902zM26.295 26.766v5.234h4.608v-2.789zM6.751 32h5.469v-9.408l-5.469-3.302zM1.096 32h4.608v-13.341l-4.608-2.782zM14.27 4.845c1.335-0.124 2.317-1.307 2.192-2.642-0.124-1.334-1.306-2.316-2.642-2.192-1.334 0.124-2.316 1.306-2.192 2.642s1.306 2.316 2.641 2.192zM22.5 19.431l-1.159-3.815c-0.047 0.083-0.096 0.165-0.15 0.244-0.531 0.763-1.365 1.25-2.29 1.335l-0.427 0.029 1.215 2.948c0.268 0.44 0.582 0.818 0.942 1.146l0.004 0.004 3.161 2.87c0.446 0.388 1.12 0.351 1.522-0.083l0.029-0.030c0.4-0.433 0.386-1.105-0.031-1.521zM14.458 7.708l0.809 0.325 0.24-0.885-0.499-0.85-0.953 0.721z"></path>
<path d="M14.125 21.913l0.043-0.010c0.573-0.142 0.936-0.705 0.828-1.284l-0.696-3.735 4.591-0.319c0.68-0.049 1.269-0.402 1.635-0.924l0.005-0.007c0.244-0.348 0.39-0.779 0.39-1.245 0-0.22-0.032-0.432-0.093-0.632l0.004 0.015-0.173-0.585-1.436-5.229 2.461 0.133 1.967 1.895c-0.095 0.116-0.142 0.268-0.104 0.425l0.161 0.651-1.144 0.282c-0.271 0.066-0.436 0.34-0.369 0.61l0.77 3.125c0.067 0.271 0.341 0.436 0.611 0.37l4.854-1.197c0.222-0.056 0.384-0.255 0.384-0.491 0-0.043-0.005-0.085-0.016-0.125l0.001 0.004-0.771-3.124c-0.066-0.27-0.34-0.436-0.611-0.37l-1.144 0.282-0.16-0.65c-0.065-0.264-0.332-0.425-0.597-0.361l-0.119 0.030c-0.030-0.12-0.081-0.225-0.151-0.316l0.001 0.002-1.924-2.523c-0.204-0.266-0.493-0.459-0.825-0.538l-0.010-0.002-3.165-1.133c-1.071-0.383-2.253-0.222-3.187 0.414l-0.274 3.894-2.521-1.765-1.759 1.35-2.847-1.027c-0.446-0.198-0.968-0.008-1.181 0.431l-0.030 0.060c-0.105 0.218-0.121 0.467-0.041 0.694 0.082 0.231 0.248 0.414 0.46 0.518l0.005 0.002 3.432 1.638c0.196 0.096 0.426 0.152 0.669 0.152 0.247 0 0.481-0.058 0.689-0.161l-0.009 0.004 1.83-1.217 1.255 3.599-3.037 0.266c-0.527 0.049-0.98 0.329-1.262 0.737l-0.004 0.006c-0.187 0.271-0.299 0.607-0.299 0.969 0 0.171 0.025 0.336 0.071 0.492l-0.003-0.012 1.51 5.162c0.168 0.573 0.755 0.911 1.335 0.769zM25.63 9.879l0.023 0.013 0.16 0.651-1.645 0.406-0.156-0.631c0.305 0.25 0.741 0.269 1.059 0.024l0.018-0.014c0.126-0.098 0.222-0.228 0.277-0.379l0.002-0.006zM17.198 12.38c0.001 0.008 0.001 0.018 0.001 0.028 0 0.156-0.119 0.284-0.271 0.299l-0.001 0c-0.008 0.001-0.017 0.001-0.026 0.001-0.157 0-0.285-0.119-0.301-0.272l-0-0.001c-0.001-0.008-0.001-0.018-0.001-0.028 0-0.156 0.12-0.285 0.272-0.299l0.001-0c0.008-0.001 0.018-0.001 0.028-0.001 0.156 0 0.284 0.119 0.298 0.271l0 0.001zM16.397 10.463c0.008-0.001 0.018-0.001 0.028-0.001 0.156 0 0.284 0.119 0.298 0.271l0 0.001c0.015 0.166-0.106 0.313-0.271 0.327s-0.311-0.106-0.326-0.271c-0.001-0.009-0.001-0.019-0.001-0.029 0-0.156 0.119-0.284 0.271-0.298l0.001-0z"></path>
</symbol>
<symbol id="icon-clock" viewBox="0 0 32 32">
<path d="M20 11.703v3.086c0.782 1.314 3.025 2.266 5.667 2.266s4.885-0.952 5.667-2.266v-3.086c-1.176 1.127-3.273 1.881-5.667 1.881s-4.491-0.754-5.667-1.881zM21.9 25.312c-0.298 0.876-0.703 1.636-1.209 2.316l0.016-0.022c0.967 1.116 2.825 1.871 4.96 1.871 1.565 0 2.981-0.403 4.008-1.060 1.023-0.656 1.659-1.416 1.659-2.416v-1.883c-1.176 1.127-3.273 1.883-5.667 1.883-1.352 0-2.664-0.243-3.766-0.688z"></path>
<path d="M20 15.841v1.051c0.948 0.982 1.658 2.199 2.034 3.555l0.014 0.059c1.035 0.443 2.31 0.688 3.619 0.688 2.642 0 4.885-0.952 5.667-2.266v-3.086c-1.176 1.127-3.273 1.881-5.667 1.881s-4.491-0.754-5.667-1.881z"></path>
<path d="M22.218 21.294c0.074 0.447 0.115 0.905 0.115 1.373-0 0.71-0.089 1.399-0.256 2.057l0.012-0.058c1.032 0.432 2.283 0.667 3.577 0.667 2.642 0 4.885-0.953 5.667-2.268v-3.086c-1.176 1.127-3.273 1.881-5.667 1.881-1.24 0-2.416-0.196-3.448-0.566zM29.667 0.748v-0.082c-2.135 0-3.868 1.709-3.914 3.833h-0.172c-0.046-2.124-1.779-3.833-3.914-3.833v0.082c0 2.078 1.619 3.774 3.664 3.906l0.003 2.013h0.667l-0.003-2.013c2.048-0.129 3.67-1.826 3.67-3.906zM25.998 6.676l0.002 2.823-0.667 0-0.002-2.824c-2.972 0.102-5.332 1.54-5.332 3.3v0.675c0.782 1.314 3.025 2.266 5.667 2.266s4.885-0.952 5.667-2.266v-0.675c0-1.761-2.361-3.199-5.335-3.3zM8.777 7.248c0.059 0.053 0.137 0.086 0.223 0.086 0.072 0 0.138-0.023 0.192-0.061l-0.001 0.001 6.016-4.211-0.203 1.217 0.658 0.109 0.333-2c0.003-0.016 0.005-0.035 0.005-0.055 0-0.165-0.12-0.302-0.277-0.329l-0.002-0-2-0.333-0.11 0.658 1.195 0.199-5.781 4.047-3.136-2.823c-0.059-0.053-0.137-0.086-0.223-0.086-0.078 0-0.15 0.027-0.207 0.072l0.001-0.001-4.667 3.667 0.412 0.524 4.446-3.493zM2 8h0.667v4h-0.667z"></path>
<path d="M3.667 7h0.667v5h-0.667zM5.333 5.667h0.667v6.333h-0.667zM7 7h0.667v5h-0.667zM8.667 8h0.667v4h-0.667zM10.333 7.667h0.667v4.333h-0.667zM12 6.333h0.667v5.667h-0.667zM13.667 5h0.667v7h-0.667zM13 14c-4.786 0-8.667 3.88-8.667 8.667s3.88 8.667 8.667 8.667 8.667-3.88 8.667-8.667-3.88-8.667-8.667-8.667zM19.762 18.378l0.333 0.577-0.866 0.5-0.333-0.577zM12.667 14.667h0.667v2.333h-0.667zM12.333 23.667l3-5 1.667 1-4.333 6.667-3.333-2.333 1-1.667zM9.289 15.572l0.5 0.866-0.577 0.333-0.5-0.866zM5 22.333h1.667v0.667h-1.667zM6.238 26.955l-0.333-0.577 0.866-0.5 0.333 0.577zM6.771 19.455l-0.866-0.5 0.333-0.577 0.866 0.5zM9.289 29.761l-0.577-0.333 0.5-0.866 0.577 0.333zM13.333 30.667h-0.667v-2.333h0.667zM16.711 29.761l-0.5-0.866 0.577-0.333 0.5 0.866zM16.789 16.771l-0.577-0.333 0.5-0.866 0.577 0.333zM19.762 26.955l-0.866-0.5 0.333-0.577 0.866 0.5zM19.333 23v-0.667h1.667v0.667z"></path>
</symbol>
<symbol id="icon-camera" viewBox="0 0 32 32">
<path d="M9.5 19c0 3.59 2.91 6.5 6.5 6.5s6.5-2.91 6.5-6.5-2.91-6.5-6.5-6.5-6.5 2.91-6.5 6.5zM30 8h-7c-0.5-2-1-4-3-4h-8c-2 0-2.5 2-3 4h-7c-1.1 0-2 0.9-2 2v18c0 1.1 0.9 2 2 2h28c1.1 0 2-0.9 2-2v-18c0-1.1-0.9-2-2-2zM16 27.875c-4.902 0-8.875-3.973-8.875-8.875s3.973-8.875 8.875-8.875c4.902 0 8.875 3.973 8.875 8.875s-3.973 8.875-8.875 8.875zM30 14h-4v-2h4v2z"></path>
</symbol>
<symbol id="icon-user-plus" viewBox="0 0 32 32">
<path d="M12 23c0-4.726 2.996-8.765 7.189-10.319 0.509-1.142 0.811-2.411 0.811-3.681 0-4.971 0-9-6-9s-6 4.029-6 9c0 3.096 1.797 6.191 4 7.432v1.649c-6.784 0.555-12 3.888-12 7.918h12.416c-0.271-0.954-0.416-1.96-0.416-3z"></path>
<path d="M23 14c-4.971 0-9 4.029-9 9s4.029 9 9 9c4.971 0 9-4.029 9-9s-4.029-9-9-9zM28 24h-4v4h-2v-4h-4v-2h4v-4h2v4h4v2z"></path>
</symbol>
<symbol id="icon-user-check" viewBox="0 0 32 32">
<path d="M30 19l-9 9-3-3-2 2 5 5 11-11z"></path>
<path d="M14 24h10v-3.598c-2.101-1.225-4.885-2.066-8-2.321v-1.649c2.203-1.242 4-4.337 4-7.432 0-4.971 0-9-6-9s-6 4.029-6 9c0 3.096 1.797 6.191 4 7.432v1.649c-6.784 0.555-12 3.888-12 7.918h14v-2z"></path>
</symbol>
<symbol id="icon-wrench" viewBox="0 0 32 32">
<path d="M31.342 25.559l-14.392-12.336c0.67-1.259 1.051-2.696 1.051-4.222 0-4.971-4.029-9-9-9-0.909 0-1.787 0.135-2.614 0.386l5.2 5.2c0.778 0.778 0.778 2.051 0 2.828l-3.172 3.172c-0.778 0.778-2.051 0.778-2.828 0l-5.2-5.2c-0.251 0.827-0.386 1.705-0.386 2.614 0 4.971 4.029 9 9 9 1.526 0 2.963-0.38 4.222-1.051l12.336 14.392c0.716 0.835 1.938 0.882 2.716 0.104l3.172-3.172c0.778-0.778 0.731-2-0.104-2.716z"></path>
</symbol>
<symbol id="icon-facebook" viewBox="0 0 32 32">
<path d="M19 6h5v-6h-5c-3.86 0-7 3.14-7 7v3h-4v6h4v16h6v-16h5l1-6h-6v-3c0-0.542 0.458-1 1-1z"></path>
</symbol>
<symbol id="icon-instagram" viewBox="0 0 32 32">
<path d="M16 2.881c4.275 0 4.781 0.019 6.462 0.094 1.563 0.069 2.406 0.331 2.969 0.55 0.744 0.288 1.281 0.638 1.837 1.194 0.563 0.563 0.906 1.094 1.2 1.838 0.219 0.563 0.481 1.412 0.55 2.969 0.075 1.688 0.094 2.194 0.094 6.463s-0.019 4.781-0.094 6.463c-0.069 1.563-0.331 2.406-0.55 2.969-0.288 0.744-0.637 1.281-1.194 1.837-0.563 0.563-1.094 0.906-1.837 1.2-0.563 0.219-1.413 0.481-2.969 0.55-1.688 0.075-2.194 0.094-6.463 0.094s-4.781-0.019-6.463-0.094c-1.563-0.069-2.406-0.331-2.969-0.55-0.744-0.288-1.281-0.637-1.838-1.194-0.563-0.563-0.906-1.094-1.2-1.837-0.219-0.563-0.481-1.413-0.55-2.969-0.075-1.688-0.094-2.194-0.094-6.463s0.019-4.781 0.094-6.463c0.069-1.563 0.331-2.406 0.55-2.969 0.288-0.744 0.638-1.281 1.194-1.838 0.563-0.563 1.094-0.906 1.838-1.2 0.563-0.219 1.412-0.481 2.969-0.55 1.681-0.075 2.188-0.094 6.463-0.094zM16 0c-4.344 0-4.887 0.019-6.594 0.094-1.7 0.075-2.869 0.35-3.881 0.744-1.056 0.412-1.95 0.956-2.837 1.85-0.894 0.888-1.438 1.781-1.85 2.831-0.394 1.019-0.669 2.181-0.744 3.881-0.075 1.713-0.094 2.256-0.094 6.6s0.019 4.887 0.094 6.594c0.075 1.7 0.35 2.869 0.744 3.881 0.413 1.056 0.956 1.95 1.85 2.837 0.887 0.887 1.781 1.438 2.831 1.844 1.019 0.394 2.181 0.669 3.881 0.744 1.706 0.075 2.25 0.094 6.594 0.094s4.888-0.019 6.594-0.094c1.7-0.075 2.869-0.35 3.881-0.744 1.050-0.406 1.944-0.956 2.831-1.844s1.438-1.781 1.844-2.831c0.394-1.019 0.669-2.181 0.744-3.881 0.075-1.706 0.094-2.25 0.094-6.594s-0.019-4.887-0.094-6.594c-0.075-1.7-0.35-2.869-0.744-3.881-0.394-1.063-0.938-1.956-1.831-2.844-0.887-0.887-1.781-1.438-2.831-1.844-1.019-0.394-2.181-0.669-3.881-0.744-1.712-0.081-2.256-0.1-6.6-0.1v0z"></path>
<path d="M16 7.781c-4.537 0-8.219 3.681-8.219 8.219s3.681 8.219 8.219 8.219 8.219-3.681 8.219-8.219c0-4.537-3.681-8.219-8.219-8.219zM16 21.331c-2.944 0-5.331-2.387-5.331-5.331s2.387-5.331 5.331-5.331c2.944 0 5.331 2.387 5.331 5.331s-2.387 5.331-5.331 5.331z"></path>
<path d="M26.462 7.456c0 1.060-0.859 1.919-1.919 1.919s-1.919-0.859-1.919-1.919c0-1.060 0.859-1.919 1.919-1.919s1.919 0.859 1.919 1.919z"></path>
</symbol>
<symbol id="icon-whatsapp" viewBox="0 0 32 32">
<path d="M27.281 4.65c-2.994-3-6.975-4.65-11.219-4.65-8.738 0-15.85 7.112-15.85 15.856 0 2.794 0.731 5.525 2.119 7.925l-2.25 8.219 8.406-2.206c2.319 1.262 4.925 1.931 7.575 1.931h0.006c0 0 0 0 0 0 8.738 0 15.856-7.113 15.856-15.856 0-4.238-1.65-8.219-4.644-11.219zM16.069 29.050v0c-2.369 0-4.688-0.637-6.713-1.837l-0.481-0.288-4.987 1.306 1.331-4.863-0.313-0.5c-1.325-2.094-2.019-4.519-2.019-7.012 0-7.269 5.912-13.181 13.188-13.181 3.519 0 6.831 1.375 9.319 3.862 2.488 2.494 3.856 5.8 3.856 9.325-0.006 7.275-5.919 13.188-13.181 13.188zM23.294 19.175c-0.394-0.2-2.344-1.156-2.706-1.288s-0.625-0.2-0.894 0.2c-0.262 0.394-1.025 1.288-1.256 1.556-0.231 0.262-0.462 0.3-0.856 0.1s-1.675-0.619-3.188-1.969c-1.175-1.050-1.975-2.35-2.206-2.744s-0.025-0.613 0.175-0.806c0.181-0.175 0.394-0.463 0.594-0.694s0.262-0.394 0.394-0.662c0.131-0.262 0.069-0.494-0.031-0.694s-0.894-2.15-1.219-2.944c-0.319-0.775-0.65-0.669-0.894-0.681-0.231-0.012-0.494-0.012-0.756-0.012s-0.694 0.1-1.056 0.494c-0.363 0.394-1.387 1.356-1.387 3.306s1.419 3.831 1.619 4.1c0.2 0.262 2.794 4.269 6.769 5.981 0.944 0.406 1.681 0.65 2.256 0.837 0.95 0.3 1.813 0.256 2.494 0.156 0.762-0.113 2.344-0.956 2.675-1.881s0.331-1.719 0.231-1.881c-0.094-0.175-0.356-0.275-0.756-0.475z"></path>
</symbol>
<symbol id="icon-telegram" viewBox="0 0 32 32">
<path d="M16 0c-8.838 0-16 7.162-16 16s7.162 16 16 16 16-7.163 16-16-7.163-16-16-16zM23.863 10.969l-2.625 12.369c-0.181 0.881-0.712 1.087-1.45 0.681l-4-2.956-1.919 1.869c-0.225 0.219-0.4 0.4-0.8 0.4-0.519 0-0.431-0.194-0.606-0.688l-1.363-4.475-3.956-1.231c-0.856-0.262-0.862-0.85 0.194-1.269l15.412-5.95c0.7-0.319 1.381 0.169 1.113 1.25z"></path>
</symbol>
<symbol id="icon-sphere" viewBox="0 0 32 32">
<path d="M15 2c-8.284 0-15 6.716-15 15s6.716 15 15 15c8.284 0 15-6.716 15-15s-6.716-15-15-15zM23.487 22c0.268-1.264 0.437-2.606 0.492-4h3.983c-0.104 1.381-0.426 2.722-0.959 4h-3.516zM6.513 12c-0.268 1.264-0.437 2.606-0.492 4h-3.983c0.104-1.381 0.426-2.722 0.959-4h3.516zM21.439 12c0.3 1.28 0.481 2.62 0.54 4h-5.979v-4h5.439zM16 10v-5.854c0.456 0.133 0.908 0.355 1.351 0.668 0.831 0.586 1.625 1.488 2.298 2.609 0.465 0.775 0.867 1.638 1.203 2.578h-4.852zM10.351 7.422c0.673-1.121 1.467-2.023 2.298-2.609 0.443-0.313 0.895-0.535 1.351-0.668v5.854h-4.852c0.336-0.94 0.738-1.803 1.203-2.578zM14 12v4h-5.979c0.059-1.38 0.24-2.72 0.54-4h5.439zM2.997 22c-0.533-1.278-0.854-2.619-0.959-4h3.983c0.055 1.394 0.224 2.736 0.492 4h-3.516zM8.021 18h5.979v4h-5.439c-0.3-1.28-0.481-2.62-0.54-4zM14 24v5.854c-0.456-0.133-0.908-0.355-1.351-0.668-0.831-0.586-1.625-1.488-2.298-2.609-0.465-0.775-0.867-1.638-1.203-2.578h4.852zM19.649 26.578c-0.673 1.121-1.467 2.023-2.298 2.609-0.443 0.312-0.895 0.535-1.351 0.668v-5.854h4.852c-0.336 0.94-0.738 1.802-1.203 2.578zM16 22v-4h5.979c-0.059 1.38-0.24 2.72-0.54 4h-5.439zM23.98 16c-0.055-1.394-0.224-2.736-0.492-4h3.516c0.533 1.278 0.855 2.619 0.959 4h-3.983zM25.958 10h-2.997c-0.582-1.836-1.387-3.447-2.354-4.732 1.329 0.636 2.533 1.488 3.585 2.54 0.671 0.671 1.261 1.404 1.766 2.192zM5.808 7.808c1.052-1.052 2.256-1.904 3.585-2.54-0.967 1.285-1.771 2.896-2.354 4.732h-2.997c0.504-0.788 1.094-1.521 1.766-2.192zM4.042 24h2.997c0.583 1.836 1.387 3.447 2.354 4.732-1.329-0.636-2.533-1.488-3.585-2.54-0.671-0.671-1.261-1.404-1.766-2.192zM24.192 26.192c-1.052 1.052-2.256 1.904-3.585 2.54 0.967-1.285 1.771-2.896 2.354-4.732h2.997c-0.504 0.788-1.094 1.521-1.766 2.192z"></path>
</symbol>
<symbol id="icon-bubbles2" viewBox="0 0 36 32">
<path d="M15 0v0c8.284 0 15 5.435 15 12.139s-6.716 12.139-15 12.139c-0.796 0-1.576-0.051-2.339-0.147-3.222 3.209-6.943 3.785-10.661 3.869v-0.785c2.008-0.98 3.625-2.765 3.625-4.804 0-0.285-0.022-0.564-0.063-0.837-3.392-2.225-5.562-5.625-5.562-9.434 0-6.704 6.716-12.139 15-12.139zM31.125 27.209c0 1.748 1.135 3.278 2.875 4.118v0.673c-3.223-0.072-6.181-0.566-8.973-3.316-0.661 0.083-1.337 0.126-2.027 0.126-2.983 0-5.732-0.805-7.925-2.157 4.521-0.016 8.789-1.464 12.026-4.084 1.631-1.32 2.919-2.87 3.825-4.605 0.961-1.84 1.449-3.799 1.449-5.825 0-0.326-0.014-0.651-0.039-0.974 2.268 1.873 3.664 4.426 3.664 7.24 0 3.265-1.88 6.179-4.82 8.086-0.036 0.234-0.055 0.474-0.055 0.718z"></path>
</symbol>
<symbol id="icon-phone" viewBox="0 0 24 32">
<path d="M19.635 18.487l-2.451-0.28c-0.067-0.008-0.145-0.013-0.223-0.013-0.531 0-1.012 0.215-1.36 0.564l-1.775 1.775c-2.752-1.42-4.94-3.607-6.322-6.278l-0.038-0.081 1.787-1.785c0.347-0.347 0.562-0.827 0.562-1.358 0-0.079-0.005-0.156-0.014-0.233l0.001 0.009-0.28-2.432c-0.115-0.966-0.93-1.708-1.918-1.708-0.001 0-0.002 0-0.002 0h-1.669c-1.091 0-1.997 0.907-1.929 1.997 0.511 8.24 7.101 14.821 15.332 15.333 1.091 0.067 1.997-0.84 1.997-1.931v-1.669c0-0.003 0-0.007 0-0.011 0-0.981-0.739-1.789-1.69-1.899l-0.009-0.001z"></path>
</symbol>
<symbol id="icon-email" viewBox="0 0 24 32">
<path d="M20 8h-16c-1.1 0-1.989 0.9-1.989 2l-0.011 12c0 1.1 0.9 2 2 2h16c1.1 0 2-0.9 2-2v-12c0-1.1-0.9-2-2-2zM19.6 12.251l-7.069 4.419c-0.151 0.094-0.334 0.15-0.531 0.15s-0.38-0.056-0.535-0.153l0.004 0.002-7.069-4.419c-0.252-0.15-0.418-0.422-0.418-0.731 0-0.469 0.38-0.849 0.849-0.849 0.174 0 0.337 0.053 0.471 0.143l6.697 4.187 6.7-4.191c0.132-0.088 0.294-0.141 0.468-0.141 0.469 0 0.849 0.38 0.849 0.849 0 0.31-0.166 0.581-0.414 0.729l-0.004 0.002z"></path>
</symbol>
<symbol id="icon-person" viewBox="0 0 32 32">
<path d="M16 16c2.946 0 5.333-2.388 5.333-5.333s-2.388-5.333-5.333-5.333v0c-2.946 0-5.333 2.388-5.333 5.333s2.388 5.333 5.333 5.333v0zM16 18.667c-3.561 0-10.667 1.787-10.667 5.333v1.333c0 0.732 0.599 1.333 1.333 1.333h18.667c0.732 0 1.333-0.601 1.333-1.333v-1.333c0-3.547-7.108-5.333-10.667-5.333z"></path>
</symbol>
<symbol id="icon-check" viewBox="0 0 40 32">
<path d="M33.782 1.020c0.691-0.662 1.611-1.027 2.565-1.020s1.869 0.387 2.55 1.059c0.681 0.672 1.076 1.584 1.101 2.543s-0.321 1.891-0.966 2.598l-19.578 24.617c-0.337 0.365-0.743 0.657-1.195 0.86s-0.939 0.312-1.434 0.322c-0.495 0.009-0.986-0.082-1.445-0.268s-0.876-0.463-1.226-0.815l-12.984-13.054c-0.362-0.339-0.652-0.747-0.853-1.201s-0.309-0.944-0.318-1.441 0.082-0.99 0.267-1.451c0.185-0.461 0.461-0.879 0.81-1.231s0.766-0.628 1.224-0.814 0.949-0.277 1.443-0.269c0.494 0.009 0.981 0.118 1.433 0.32s0.858 0.494 1.195 0.857l10.275 10.325 17.042-21.83c0.031-0.038 0.063-0.074 0.098-0.109h-0.005z"></path>
</symbol>
</defs>
</svg>
