<!-- Generated by IcoMoon.io -->
<svg version="1.1" xmlns="http://www.w3.org/2000/svg" width="32" height="32" viewBox="0 0 32 32">
<path fill="#e3e3e3" d="M16.717 20.717q0.283-0.283 0.283-0.717t-0.283-0.717-0.717-0.283-0.717 0.283-0.283 0.717 0.283 0.717 0.717 0.283 0.717-0.283zM15 17.333h2v-6.667h-2zM12.933 29.333l-0.667-4.2q-0.633-0.233-1.333-0.633t-1.233-0.833l-3.933 1.8-3.1-5.467 3.6-2.633q-0.067-0.3-0.083-0.683t-0.017-0.683 0.017-0.683 0.083-0.683l-3.6-2.633 3.1-5.467 3.933 1.8q0.533-0.433 1.233-0.833t1.333-0.6l0.667-4.233h6.133l0.667 4.2q0.633 0.233 1.35 0.617t1.217 0.85l3.933-1.8 3.1 5.467-3.6 2.567q0.067 0.333 0.083 0.717t0.017 0.717-0.017 0.7-0.083 0.7l3.6 2.6-3.1 5.467-3.933-1.8q-0.533 0.433-1.217 0.85t-1.35 0.617l-0.667 4.2zM14.533 27.333h2.933l0.467-3.733q1.1-0.267 2.083-0.833t1.783-1.367l3.533 1.533 1.333-2.4-3.133-2.3q0.133-0.567 0.217-1.117t0.083-1.117-0.067-1.117-0.233-1.117l3.133-2.3-1.333-2.4-3.533 1.533q-0.767-0.867-1.733-1.45t-2.133-0.75l-0.467-3.733h-2.933l-0.467 3.733q-1.133 0.233-2.117 0.8t-1.75 1.4l-3.533-1.533-1.333 2.4 3.133 2.3q-0.133 0.567-0.217 1.117t-0.083 1.117 0.083 1.117 0.217 1.117l-3.133 2.3 1.333 2.4 3.533-1.533q0.8 0.8 1.783 1.367t2.083 0.833z"></path>
</svg>
