<!-- Generated by IcoMoon.io -->
<svg version="1.1" xmlns="http://www.w3.org/2000/svg" width="32" height="32" viewBox="0 0 32 32">
<path fill="#e3e3e3" d="M9.733 14.433q-1.4-1.4-1.4-3.6t1.4-3.6 3.6-1.4 3.6 1.4 1.4 3.6-1.4 3.6-3.6 1.4-3.6-1.4zM2.667 26.533v-3.133q0-1.167 0.583-2.1t1.683-1.433q2.4-1.067 4.45-1.533t3.95-0.467h0.767q-0.2 0.467-0.3 0.917t-0.167 1.083h-0.3q-1.933 0-3.783 0.417t-3.817 1.383q-0.533 0.267-0.8 0.75t-0.267 0.983v1.133h8.967q0.167 0.6 0.4 1.083t0.567 0.917zM22.233 28l-0.333-2.2q-0.567-0.167-1.15-0.483t-0.983-0.717l-1.833 0.4-0.833-1.4 1.567-1.467q-0.067-0.3-0.067-0.833t0.067-0.833l-1.567-1.467 0.833-1.4 1.833 0.4q0.4-0.4 0.983-0.717t1.15-0.483l0.333-2.2h1.8l0.333 2.2q0.567 0.167 1.15 0.483t0.983 0.717l1.833-0.4 0.833 1.4-1.567 1.467q0.067 0.3 0.067 0.833t-0.067 0.833l1.567 1.467-0.833 1.4-1.833-0.4q-0.4 0.4-0.983 0.717t-1.15 0.483l-0.333 2.2zM25.067 23.233q0.733-0.733 0.733-1.933t-0.733-1.933-1.933-0.733-1.933 0.733-0.733 1.933 0.733 1.933 1.933 0.733 1.933-0.733zM15.483 12.983q0.85-0.85 0.85-2.15t-0.85-2.15-2.15-0.85-2.15 0.85-0.85 2.15 0.85 2.15 2.15 0.85 2.15-0.85z"></path>
</svg>
